<svg xmlns="http://www.w3.org/2000/svg" width="24" height="24" viewBox="0 0 24 24"><path d="M8.55 10.32c-2.753 0-4.202 3.48-5.793 3.48-.98 0-1.126-.677-1.126-.915 0-.332.236-.706.564-.706.59 0 .414.77.414.77s.798-.555.272-1.298c-.42-.595-1.31-.623-1.92-.17-.617.458-1.057 1.146-.853 2.287.1.551.468 1.35 1.233 1.805.764.455 1.925.566 2.335.566 2.194 0 4.342-1.633 6.639-2.322a5.513 5.513 0 0 1 1.497-.222 6.19 6.19 0 0 1 1.92.226c2.296.689 4.444 2.323 6.638 2.323.41 0 1.57-.11 2.335-.566.765-.455 1.132-1.256 1.231-1.807.204-1.14-.235-1.829-.853-2.287-.61-.453-1.497-.423-1.918.172-.526.743.27 1.297.27 1.297s-.176-.77.414-.77c.329 0 .565.373.565.705 0 .238-.147.914-1.126.914-1.592 0-3.04-3.478-5.794-3.478-2.565 0-3.076 1.177-3.462 1.718-.004.005-.005.011-.008.016-.005-.006-.007-.013-.012-.02-.386-.54-.896-1.717-3.461-1.717z" fill="#ff7043" fill-rule="evenodd"/></svg>