<svg xmlns="http://www.w3.org/2000/svg" width="210mm" height="210mm" viewBox="0 0 210 210"><path fill="#f68712" d="M42.78 104.545l63.431-63.43 63.431 63.43-63.431 63.431z"/><path d="M42.8 104.592L31.193 61.28 19.59 17.97 62.9 29.575l43.311 11.605-31.706 31.706z" fill="#fab20b"/><path d="M105.956 41.111l-43.19-11.544L19.588 17.97l22.927.185 23.228.294 20.264 11.36z" fill="#fbc707"/><path d="M19.59 17.97l11.596 43.176 11.545 43.19-11.303-19.948-11.36-20.263-.294-23.228z" fill="#fff200"/><path d="M106.23 41.133l43.312-11.605 43.311-11.605-11.605 43.31-11.605 43.312-31.706-31.706z" fill="#f47216"/><path d="M169.711 104.289l11.545-43.19 11.597-43.176-.185 22.927-.294 23.228-11.36 20.263z" fill="#f1471d"/><path d="M192.853 17.923L149.677 29.52l-43.19 11.544 19.947-11.303 20.264-11.36 23.228-.293z" fill="#fbc707"/><path d="M169.643 104.545l11.605 43.31 11.605 43.312-43.311-11.605-43.311-11.606 31.706-31.705z" fill="#f25c19"/><path d="M106.487 168.025l43.19 11.544 43.176 11.598-22.927-.185-23.228-.294-20.264-11.36z" fill="#f68712"/><path d="M192.853 191.167l-11.597-43.176-11.545-43.19 11.303 19.947 11.36 20.264.294 23.228z" fill="#f1471d"/><path d="M106.211 167.976l-43.31 11.605-43.312 11.605 11.605-43.31L42.8 104.563l31.706 31.706z" fill="#f89c0e"/><path d="M42.731 104.82l-11.545 43.19-11.597 43.176.185-22.927.294-23.228 11.36-20.263z" fill="#fff200"/><path d="M19.59 191.186l43.175-11.597 43.19-11.544-19.947 11.303-20.264 11.36-23.228.293z" fill="#f25c19"/></svg>