<svg xmlns="http://www.w3.org/2000/svg" width="24" height="24" viewBox="0 0 24 24"><text style="line-height:113.99999857%" x="5.605" y="15.892" transform="scale(.91325 1.095)" font-weight="400" font-size="42.822" font-family="sans-serif" letter-spacing="0" word-spacing="0" fill="#f44336"/><path style="line-height:125%" d="M4.744 2.031c-1.157 0-1.994.31-2.51.93-.515.612-.771 1.678-.771 3.197v2.467c0 1.408-.402 2.111-1.201 2.111v2.035c.8 0 1.2.679 1.2 2.036v2.654c0 1.512.26 2.562.78 3.152.52.59 1.355.885 2.502.885V19.43c-.447 0-.77-.151-.97-.453-.195-.303-.292-.815-.292-1.538v-2.267c0-1.807-.404-2.937-1.214-3.395v-.045c.81-.464 1.214-1.581 1.214-3.351V6.025c0-1.283.42-1.925 1.262-1.925V2.03zm14.66 0V4.1c.842 0 1.262.642 1.262 1.925v2.268c0 1.843.402 2.996 1.207 3.46v.046c-.805.442-1.207 1.544-1.207 3.306v2.356c0 .715-.099 1.22-.299 1.516-.2.302-.52.453-.963.453v2.068c1.152 0 1.984-.295 2.494-.885.516-.59.772-1.663.772-3.218V14.84c0-1.379.404-2.069 1.209-2.069v-2.035c-.805 0-1.21-.696-1.21-2.09V6.113c0-1.49-.255-2.54-.77-3.152-.516-.62-1.348-.93-2.495-.93zm-3.054 4.46c-.455 0-.886.057-1.293.173a3.056 3.056 0 0 0-1.078.527c-.308.241-.551.549-.731.924-.18.37-.27.817-.27 1.336 0 .663.165 1.227.493 1.695.33.468.831.864 1.502 1.188.263.125.509.249.736.37.227.12.422.244.586.374.168.13.299.271.394.424a.963.963 0 0 1 .145.521c0 .144-.03.28-.09.405a.9.9 0 0 1-.275.318c-.12.088-.272.158-.455.21a2.34 2.34 0 0 1-.635.075c-.415 0-.825-.083-1.233-.25a3.644 3.644 0 0 1-1.13-.763v2.222a3.68 3.68 0 0 0 1.101.418c.427.093.875.139 1.346.139.459 0 .894-.05 1.305-.152a3.002 3.002 0 0 0 1.09-.5c.31-.237.556-.543.736-.918.183-.38.275-.849.275-1.405 0-.403-.052-.755-.156-1.056a2.542 2.542 0 0 0-.45-.813 3.295 3.295 0 0 0-.704-.633 6.754 6.754 0 0 0-.922-.535 12.4 12.4 0 0 1-.676-.348c-.2-.115-.37-.231-.51-.347a1.502 1.502 0 0 1-.322-.375.91.91 0 0 1-.115-.453c0-.153.033-.288.101-.408a.948.948 0 0 1 .29-.32c.123-.089.275-.156.454-.202a2.18 2.18 0 0 1 .598-.078c.16 0 .326.015.502.043.18.028.36.07.539.13.18.056.354.13.522.218.171.088.329.188.472.304V6.871a4.039 4.039 0 0 0-.957-.285 6.448 6.448 0 0 0-1.185-.096zm-8.774.165l-3.123 9.967h2.094l.605-2.217h3.053l.61 2.217h2.107L9.869 6.656H7.576zm1.072 1.78h.047c.028.347.077.646.145.896l.922 3.35H7.564l.934-3.377c.08-.288.13-.578.15-.87z" font-weight="400" font-size="51.019" font-family="sans-serif" letter-spacing="0" word-spacing="0" fill="#f44336"/></svg>