<svg xmlns="http://www.w3.org/2000/svg" width="720" height="720"><title>Layer 1</title><path d="M209.247 329.98L52.368 387.638l121.325 85.822 96.752-95.804-61.198-47.674z" fill="#4db6ac" fill-rule="evenodd"/><path d="M480.193 71.446c-13.123 1.784-9.565 1.013-28.4 16.09-18.008 14.418-69.925 100.347-97.673 129.256-24.688 25.722-34.46 12.199-60.102 33.661-25.68 21.494-65.273 64.464-65.273 64.464l63.978 47.32L394.15 222.754c23.948-32.932 23.694-37.266 36.744-71.82 6.384-16.907 17.76-29.9 27.756-45.809 12.488-19.874 30.186-34.855 21.543-33.68z" fill="#00897b" fill-rule="evenodd"/><path d="M478.206 69.796c-31.268-.189-62.068 137.245-115.56 242.691-54.543 107.519-162.235 176.82-162.235 176.82 18.156 8.243 34.681 4.91 54.236 23.394 13.375 16.164 52.09 95.976 75.174 146.117 0 0 18.964-10.297 42.994-27.695 24.03-17.397 53.124-41.896 73.384-70.3 26.883-37.692 47.897-61.043 65.703-75.271 17.806-14.23 32.404-19.336 46.458-20.54 50.238-4.305 124.582 85.792 124.582 85.792S527.267 70.09 478.206 69.796z" fill="#ffb74d" fill-rule="evenodd"/></svg>